<mxfile host="Electron" modified="2023-10-25T18:41:27.039Z" agent="Mozilla/5.0 (X11; Linux x86_64) AppleWebKit/537.36 (KHTML, like Gecko) draw.io/21.6.1 Chrome/112.0.5615.204 Electron/24.6.1 Safari/537.36" etag="K9sIIkHOROHzlJXyUGbN" version="21.6.1" type="device">
  <diagram name="Page-1" id="CSM4X8NVyn2cojjMiNvR">
    <mxGraphModel dx="819" dy="518" grid="1" gridSize="10" guides="1" tooltips="1" connect="1" arrows="1" fold="1" page="1" pageScale="1" pageWidth="1169" pageHeight="827" math="0" shadow="0">
      <root>
        <mxCell id="0" />
        <mxCell id="1" parent="0" />
        <mxCell id="RZB0lDyGUCvQWmC4sDzE-13" style="edgeStyle=orthogonalEdgeStyle;rounded=0;orthogonalLoop=1;jettySize=auto;html=1;fillColor=#d5e8d4;strokeColor=#82b366;" edge="1" parent="1" source="RZB0lDyGUCvQWmC4sDzE-1" target="RZB0lDyGUCvQWmC4sDzE-5">
          <mxGeometry relative="1" as="geometry" />
        </mxCell>
        <mxCell id="RZB0lDyGUCvQWmC4sDzE-1" value="Window manager" style="rounded=0;whiteSpace=wrap;html=1;fillColor=#d5e8d4;strokeColor=#82b366;" vertex="1" parent="1">
          <mxGeometry x="40" y="40" width="120" height="40" as="geometry" />
        </mxCell>
        <mxCell id="RZB0lDyGUCvQWmC4sDzE-5" value="" style="swimlane;startSize=0;fillColor=#dae8fc;strokeColor=#6c8ebf;" vertex="1" parent="1">
          <mxGeometry x="40" y="120" width="320" height="80" as="geometry">
            <mxRectangle x="40" y="120" width="50" height="40" as="alternateBounds" />
          </mxGeometry>
        </mxCell>
        <mxCell id="RZB0lDyGUCvQWmC4sDzE-2" value="Screen" style="rounded=0;whiteSpace=wrap;html=1;fillColor=#dae8fc;strokeColor=#6c8ebf;" vertex="1" parent="RZB0lDyGUCvQWmC4sDzE-5">
          <mxGeometry x="20" y="20" width="80" height="40" as="geometry" />
        </mxCell>
        <mxCell id="RZB0lDyGUCvQWmC4sDzE-3" value="Screen" style="rounded=0;whiteSpace=wrap;html=1;fillColor=#dae8fc;strokeColor=#6c8ebf;" vertex="1" parent="RZB0lDyGUCvQWmC4sDzE-5">
          <mxGeometry x="120" y="20" width="80" height="40" as="geometry" />
        </mxCell>
        <mxCell id="RZB0lDyGUCvQWmC4sDzE-4" value="..." style="rounded=0;whiteSpace=wrap;html=1;fillColor=#dae8fc;strokeColor=#6c8ebf;" vertex="1" parent="RZB0lDyGUCvQWmC4sDzE-5">
          <mxGeometry x="220" y="20" width="80" height="40" as="geometry" />
        </mxCell>
        <mxCell id="RZB0lDyGUCvQWmC4sDzE-8" value="" style="swimlane;startSize=0;fillColor=#f8cecc;strokeColor=#b85450;" vertex="1" parent="1">
          <mxGeometry x="40" y="240" width="320" height="80" as="geometry" />
        </mxCell>
        <mxCell id="RZB0lDyGUCvQWmC4sDzE-9" value="Workspace" style="rounded=0;whiteSpace=wrap;html=1;fillColor=#f8cecc;strokeColor=#b85450;" vertex="1" parent="RZB0lDyGUCvQWmC4sDzE-8">
          <mxGeometry x="20" y="20" width="80" height="40" as="geometry" />
        </mxCell>
        <mxCell id="RZB0lDyGUCvQWmC4sDzE-10" value="Workspace" style="rounded=0;whiteSpace=wrap;html=1;fillColor=#f8cecc;strokeColor=#b85450;" vertex="1" parent="RZB0lDyGUCvQWmC4sDzE-8">
          <mxGeometry x="120" y="20" width="80" height="40" as="geometry" />
        </mxCell>
        <mxCell id="RZB0lDyGUCvQWmC4sDzE-11" value="..." style="rounded=0;whiteSpace=wrap;html=1;fillColor=#f8cecc;strokeColor=#b85450;" vertex="1" parent="RZB0lDyGUCvQWmC4sDzE-8">
          <mxGeometry x="220" y="20" width="80" height="40" as="geometry" />
        </mxCell>
        <mxCell id="RZB0lDyGUCvQWmC4sDzE-12" style="edgeStyle=orthogonalEdgeStyle;rounded=0;orthogonalLoop=1;jettySize=auto;html=1;fillColor=#dae8fc;strokeColor=#6c8ebf;" edge="1" parent="1" source="RZB0lDyGUCvQWmC4sDzE-2" target="RZB0lDyGUCvQWmC4sDzE-8">
          <mxGeometry relative="1" as="geometry" />
        </mxCell>
        <mxCell id="RZB0lDyGUCvQWmC4sDzE-15" value="" style="swimlane;startSize=0;fillColor=#ffe6cc;strokeColor=#d79b00;" vertex="1" parent="1">
          <mxGeometry x="40" y="360" width="320" height="80" as="geometry" />
        </mxCell>
        <mxCell id="RZB0lDyGUCvQWmC4sDzE-16" value="Window" style="rounded=0;whiteSpace=wrap;html=1;fillColor=#ffe6cc;strokeColor=#d79b00;" vertex="1" parent="RZB0lDyGUCvQWmC4sDzE-15">
          <mxGeometry x="20" y="20" width="80" height="40" as="geometry" />
        </mxCell>
        <mxCell id="RZB0lDyGUCvQWmC4sDzE-17" value="Window" style="rounded=0;whiteSpace=wrap;html=1;fillColor=#ffe6cc;strokeColor=#d79b00;" vertex="1" parent="RZB0lDyGUCvQWmC4sDzE-15">
          <mxGeometry x="120" y="20" width="80" height="40" as="geometry" />
        </mxCell>
        <mxCell id="RZB0lDyGUCvQWmC4sDzE-18" value="..." style="rounded=0;whiteSpace=wrap;html=1;fillColor=#ffe6cc;strokeColor=#d79b00;" vertex="1" parent="RZB0lDyGUCvQWmC4sDzE-15">
          <mxGeometry x="220" y="20" width="80" height="40" as="geometry" />
        </mxCell>
        <mxCell id="RZB0lDyGUCvQWmC4sDzE-19" style="edgeStyle=orthogonalEdgeStyle;rounded=0;orthogonalLoop=1;jettySize=auto;html=1;fillColor=#f8cecc;strokeColor=#b85450;" edge="1" parent="1" source="RZB0lDyGUCvQWmC4sDzE-9" target="RZB0lDyGUCvQWmC4sDzE-15">
          <mxGeometry relative="1" as="geometry" />
        </mxCell>
      </root>
    </mxGraphModel>
  </diagram>
</mxfile>
